<svg width="212" height="244" viewBox="0 0 212 244" fill="none" xmlns="http://www.w3.org/2000/svg">
<rect x="8" width="196" height="196" rx="12" fill="white"/>
<g filter="url(#filter0_d_1594_9962)">
<rect x="8" width="196" height="196" rx="12" fill="white"/>
</g>
<rect x="18.5" y="10" width="175" height="122" rx="12" fill="#0060FF"/>
<circle cx="181" cy="22" r="4" fill="white"/>
<path d="M19.3608 157.5V148.773H22.6335C23.304 148.773 23.8665 148.898 24.321 149.148C24.7784 149.398 25.1236 149.741 25.3565 150.179C25.5923 150.614 25.7102 151.108 25.7102 151.662C25.7102 152.222 25.5923 152.719 25.3565 153.153C25.1207 153.588 24.7727 153.93 24.3125 154.18C23.8523 154.428 23.2855 154.551 22.6122 154.551H20.4432V153.251H22.3991C22.7912 153.251 23.1122 153.183 23.3622 153.047C23.6122 152.911 23.7969 152.723 23.9162 152.484C24.0384 152.246 24.0994 151.972 24.0994 151.662C24.0994 151.352 24.0384 151.08 23.9162 150.844C23.7969 150.608 23.6108 150.425 23.358 150.294C23.108 150.161 22.7855 150.094 22.3906 150.094H20.9418V157.5H19.3608ZM27.0153 157.5V150.955H28.511V152.045H28.5792C28.6985 151.668 28.9031 151.376 29.1928 151.172C29.4854 150.964 29.8192 150.861 30.1942 150.861C30.2795 150.861 30.3746 150.865 30.4798 150.874C30.5877 150.879 30.6772 150.889 30.7482 150.903V152.322C30.6829 152.3 30.5792 152.28 30.4371 152.263C30.2979 152.243 30.163 152.233 30.0323 152.233C29.7511 152.233 29.4982 152.294 29.2738 152.416C29.0522 152.536 28.8775 152.702 28.7496 152.915C28.6218 153.128 28.5579 153.374 28.5579 153.652V157.5H27.0153ZM31.7731 157.5V150.955H33.3157V157.5H31.7731ZM32.5487 150.026C32.3043 150.026 32.0941 149.945 31.918 149.783C31.7418 149.618 31.6538 149.42 31.6538 149.19C31.6538 148.957 31.7418 148.76 31.918 148.598C32.0941 148.433 32.3043 148.351 32.5487 148.351C32.7958 148.351 33.006 148.433 33.1793 148.598C33.3555 148.76 33.4435 148.957 33.4435 149.19C33.4435 149.42 33.3555 149.618 33.1793 149.783C33.006 149.945 32.7958 150.026 32.5487 150.026ZM34.902 157.5V150.955H36.3764V152.067H36.4531C36.5895 151.692 36.8153 151.399 37.1307 151.189C37.446 150.976 37.8224 150.869 38.2599 150.869C38.7031 150.869 39.0767 150.977 39.3807 151.193C39.6875 151.406 39.9034 151.697 40.0284 152.067H40.0966C40.2415 151.703 40.4858 151.413 40.8295 151.197C41.1761 150.979 41.5866 150.869 42.0611 150.869C42.6634 150.869 43.1548 151.06 43.5355 151.44C43.9162 151.821 44.1065 152.376 44.1065 153.107V157.5H42.5597V153.345C42.5597 152.939 42.4517 152.642 42.2358 152.455C42.0199 152.264 41.7557 152.169 41.4432 152.169C41.071 152.169 40.7798 152.286 40.5696 152.518C40.3622 152.749 40.2585 153.048 40.2585 153.418V157.5H38.7457V153.281C38.7457 152.943 38.6435 152.673 38.4389 152.472C38.2372 152.27 37.973 152.169 37.6463 152.169C37.4247 152.169 37.223 152.226 37.0412 152.339C36.8594 152.45 36.7145 152.608 36.6065 152.812C36.4986 153.014 36.4446 153.25 36.4446 153.52V157.5H34.902ZM47.555 157.632C47.1403 157.632 46.7667 157.558 46.4343 157.411C46.1048 157.26 45.8434 157.038 45.6502 156.746C45.4599 156.453 45.3647 156.092 45.3647 155.663C45.3647 155.294 45.4329 154.989 45.5692 154.747C45.7056 154.506 45.8917 154.312 46.1275 154.168C46.3633 154.023 46.6289 153.913 46.9244 153.839C47.2227 153.763 47.5309 153.707 47.8491 153.673C48.2326 153.634 48.5437 153.598 48.7823 153.567C49.021 153.533 49.1942 153.482 49.3022 153.413C49.413 153.342 49.4684 153.233 49.4684 153.085V153.06C49.4684 152.739 49.3732 152.49 49.1829 152.314C48.9925 152.138 48.7184 152.05 48.3604 152.05C47.9826 152.05 47.6829 152.132 47.4613 152.297C47.2425 152.462 47.0948 152.656 47.0181 152.881L45.5778 152.676C45.6914 152.278 45.8789 151.946 46.1403 151.679C46.4016 151.409 46.7212 151.207 47.0991 151.074C47.4769 150.938 47.8945 150.869 48.3519 150.869C48.6673 150.869 48.9812 150.906 49.2937 150.98C49.6062 151.054 49.8917 151.176 50.1502 151.347C50.4087 151.514 50.6161 151.743 50.7724 152.033C50.9315 152.322 51.011 152.685 51.011 153.119V157.5H49.5281V156.601H49.4769C49.3832 156.783 49.2511 156.953 49.0806 157.112C48.913 157.268 48.7013 157.395 48.4457 157.491C48.1928 157.585 47.896 157.632 47.555 157.632ZM47.9556 156.499C48.2653 156.499 48.5337 156.437 48.761 156.315C48.9883 156.19 49.163 156.026 49.2852 155.821C49.4102 155.616 49.4727 155.393 49.4727 155.152V154.381C49.4244 154.42 49.342 154.457 49.2255 154.491C49.1119 154.526 48.984 154.555 48.842 154.581C48.6999 154.607 48.5593 154.629 48.4201 154.649C48.2809 154.669 48.1602 154.686 48.0579 154.7C47.8278 154.732 47.6218 154.783 47.44 154.854C47.2582 154.925 47.1147 155.024 47.0096 155.152C46.9045 155.277 46.8519 155.439 46.8519 155.638C46.8519 155.922 46.9556 156.136 47.163 156.281C47.3704 156.426 47.6346 156.499 47.9556 156.499ZM52.5621 157.5V150.955H54.0579V152.045H54.1261C54.2454 151.668 54.4499 151.376 54.7397 151.172C55.0323 150.964 55.3661 150.861 55.7411 150.861C55.8263 150.861 55.9215 150.865 56.0266 150.874C56.1346 150.879 56.2241 150.889 56.2951 150.903V152.322C56.2298 152.3 56.1261 152.28 55.984 152.263C55.8448 152.243 55.7099 152.233 55.5792 152.233C55.2979 152.233 55.0451 152.294 54.8207 152.416C54.5991 152.536 54.4244 152.702 54.2965 152.915C54.1687 153.128 54.1048 153.374 54.1048 153.652V157.5H52.5621ZM58.478 159.955C58.2678 159.955 58.0732 159.938 57.8942 159.903C57.718 159.872 57.5774 159.835 57.4723 159.793L57.8303 158.591C58.0547 158.656 58.255 158.688 58.4311 158.685C58.6072 158.682 58.7621 158.626 58.8956 158.518C59.032 158.413 59.147 158.237 59.2408 157.99L59.3729 157.636L56.9993 150.955H58.6357L60.1442 155.898H60.2124L61.7251 150.955H63.3658L60.745 158.293C60.6229 158.639 60.4609 158.936 60.2592 159.183C60.0575 159.433 59.8104 159.624 59.5178 159.754C59.228 159.888 58.8814 159.955 58.478 159.955ZM67.3161 148.364L64.5036 158.812H63.1527L65.9652 148.364H67.3161ZM71.5092 157.666C70.8075 157.666 70.2053 157.489 69.7024 157.134C69.2024 156.776 68.8175 156.26 68.5476 155.587C68.2805 154.911 68.147 154.097 68.147 153.145C68.1499 152.193 68.2848 151.384 68.5518 150.716C68.8217 150.045 69.2067 149.534 69.7067 149.182C70.2095 148.83 70.8104 148.653 71.5092 148.653C72.2081 148.653 72.8089 148.83 73.3118 149.182C73.8146 149.534 74.1996 150.045 74.4666 150.716C74.7365 151.386 74.8714 152.196 74.8714 153.145C74.8714 154.099 74.7365 154.915 74.4666 155.591C74.1996 156.264 73.8146 156.778 73.3118 157.134C72.8118 157.489 72.2109 157.666 71.5092 157.666ZM71.5092 156.332C72.0547 156.332 72.4851 156.064 72.8004 155.527C73.1186 154.987 73.2777 154.193 73.2777 153.145C73.2777 152.452 73.2053 151.869 73.0604 151.398C72.9155 150.926 72.7109 150.571 72.4467 150.332C72.1825 150.091 71.87 149.97 71.5092 149.97C70.9666 149.97 70.5376 150.24 70.2223 150.78C69.907 151.317 69.7479 152.105 69.745 153.145C69.7422 153.841 69.8118 154.426 69.9538 154.901C70.0987 155.375 70.3033 155.733 70.5675 155.974C70.8317 156.213 71.1456 156.332 71.5092 156.332ZM79.3214 157.619C78.7532 157.619 78.2447 157.513 77.7958 157.3C77.3469 157.084 76.9904 156.788 76.7262 156.413C76.4648 156.038 76.3256 155.609 76.3086 155.126H77.8427C77.8711 155.484 78.0259 155.777 78.3072 156.004C78.5884 156.229 78.9265 156.341 79.3214 156.341C79.631 156.341 79.9066 156.27 80.1481 156.128C80.3896 155.986 80.5799 155.788 80.7191 155.536C80.8583 155.283 80.9265 154.994 80.9237 154.67C80.9265 154.341 80.8569 154.048 80.7148 153.793C80.5728 153.537 80.3782 153.337 80.131 153.192C79.8839 153.044 79.5998 152.97 79.2788 152.97C79.0174 152.967 78.7603 153.016 78.5075 153.115C78.2546 153.214 78.0543 153.345 77.9066 153.507L76.479 153.273L76.935 148.773H81.9975V150.094H78.2433L77.9918 152.408H78.043C78.2049 152.217 78.4336 152.06 78.729 151.935C79.0245 151.807 79.3484 151.743 79.7006 151.743C80.229 151.743 80.7006 151.868 81.1154 152.118C81.5302 152.365 81.8569 152.706 82.0955 153.141C82.3342 153.575 82.4535 154.072 82.4535 154.632C82.4535 155.209 82.32 155.723 82.0529 156.175C81.7887 156.624 81.4208 156.977 80.9492 157.236C80.4805 157.491 79.9379 157.619 79.3214 157.619Z" fill="black"/>
<path d="M22.5824 180.25L24.0142 171.523H25.2074L23.7756 180.25H22.5824ZM18.6491 178L18.8494 176.807H25.5653L25.3651 178H18.6491ZM19.5142 180.25L20.946 171.523H22.1392L20.7074 180.25H19.5142ZM19.1562 174.966L19.3523 173.773H26.0682L25.8722 174.966H19.1562ZM30.2241 180.416C29.5224 180.416 28.9201 180.239 28.4173 179.884C27.9173 179.526 27.5323 179.01 27.2624 178.337C26.9954 177.661 26.8619 176.847 26.8619 175.895C26.8647 174.943 26.9996 174.134 27.2667 173.466C27.5366 172.795 27.9215 172.284 28.4215 171.932C28.9244 171.58 29.5252 171.403 30.2241 171.403C30.9229 171.403 31.5238 171.58 32.0266 171.932C32.5295 172.284 32.9144 172.795 33.1815 173.466C33.4513 174.136 33.5863 174.946 33.5863 175.895C33.5863 176.849 33.4513 177.665 33.1815 178.341C32.9144 179.014 32.5295 179.528 32.0266 179.884C31.5266 180.239 30.9258 180.416 30.2241 180.416ZM30.2241 179.082C30.7695 179.082 31.1999 178.814 31.5153 178.277C31.8335 177.737 31.9925 176.943 31.9925 175.895C31.9925 175.202 31.9201 174.619 31.7752 174.148C31.6303 173.676 31.4258 173.321 31.1616 173.082C30.8974 172.841 30.5849 172.72 30.2241 172.72C29.6815 172.72 29.2525 172.99 28.9371 173.53C28.6218 174.067 28.4627 174.855 28.4599 175.895C28.457 176.591 28.5266 177.176 28.6687 177.651C28.8136 178.125 29.0181 178.483 29.2823 178.724C29.5465 178.963 29.8604 179.082 30.2241 179.082ZM38.228 180.416C37.5263 180.416 36.924 180.239 36.4212 179.884C35.9212 179.526 35.5362 179.01 35.2663 178.337C34.9993 177.661 34.8658 176.847 34.8658 175.895C34.8686 174.943 35.0036 174.134 35.2706 173.466C35.5405 172.795 35.9254 172.284 36.4254 171.932C36.9283 171.58 37.5291 171.403 38.228 171.403C38.9268 171.403 39.5277 171.58 40.0305 171.932C40.5334 172.284 40.9183 172.795 41.1854 173.466C41.4553 174.136 41.5902 174.946 41.5902 175.895C41.5902 176.849 41.4553 177.665 41.1854 178.341C40.9183 179.014 40.5334 179.528 40.0305 179.884C39.5305 180.239 38.9297 180.416 38.228 180.416ZM38.228 179.082C38.7734 179.082 39.2038 178.814 39.5192 178.277C39.8374 177.737 39.9964 176.943 39.9964 175.895C39.9964 175.202 39.924 174.619 39.7791 174.148C39.6342 173.676 39.4297 173.321 39.1655 173.082C38.9013 172.841 38.5888 172.72 38.228 172.72C37.6854 172.72 37.2564 172.99 36.9411 173.53C36.6257 174.067 36.4666 174.855 36.4638 175.895C36.4609 176.591 36.5305 177.176 36.6726 177.651C36.8175 178.125 37.022 178.483 37.2862 178.724C37.5504 178.963 37.8643 179.082 38.228 179.082ZM46.2021 180.369C45.7844 180.366 45.3768 180.294 44.979 180.152C44.5813 180.007 44.2234 179.773 43.9052 179.449C43.587 179.122 43.3342 178.689 43.1467 178.149C42.9592 177.607 42.8668 176.935 42.8697 176.134C42.8697 175.386 42.9492 174.72 43.1083 174.135C43.2674 173.55 43.4961 173.055 43.7944 172.652C44.0927 172.246 44.4521 171.936 44.8725 171.723C45.2958 171.51 45.7688 171.403 46.2915 171.403C46.8398 171.403 47.3256 171.511 47.7489 171.727C48.1751 171.943 48.5188 172.239 48.7802 172.614C49.0415 172.986 49.2035 173.406 49.266 173.875H47.7106C47.631 173.54 47.4677 173.273 47.2205 173.074C46.9762 172.872 46.6665 172.771 46.2915 172.771C45.6864 172.771 45.2205 173.034 44.8938 173.56C44.57 174.085 44.4066 174.807 44.4038 175.724H44.4634C44.6026 175.474 44.783 175.26 45.0046 175.081C45.2262 174.902 45.4762 174.764 45.7546 174.668C46.0359 174.568 46.3327 174.518 46.6452 174.518C47.1566 174.518 47.6154 174.641 48.0217 174.885C48.4308 175.129 48.7546 175.466 48.9933 175.895C49.2319 176.321 49.3498 176.81 49.3469 177.361C49.3498 177.935 49.2191 178.45 48.9549 178.908C48.6907 179.362 48.3228 179.72 47.8512 179.982C47.3796 180.243 46.8299 180.372 46.2021 180.369ZM46.1935 179.091C46.5032 179.091 46.7802 179.016 47.0245 178.865C47.2688 178.714 47.462 178.511 47.604 178.256C47.7461 178 47.8157 177.713 47.8129 177.395C47.8157 177.082 47.7475 176.8 47.6083 176.547C47.4719 176.294 47.283 176.094 47.0415 175.946C46.8001 175.798 46.5245 175.724 46.2148 175.724C45.9847 175.724 45.7702 175.768 45.5714 175.857C45.3725 175.945 45.1992 176.067 45.0515 176.223C44.9038 176.376 44.7873 176.555 44.7021 176.76C44.6197 176.962 44.5771 177.178 44.5742 177.408C44.5771 177.712 44.6481 177.991 44.7873 178.247C44.9265 178.503 45.1183 178.707 45.3626 178.861C45.6069 179.014 45.8839 179.091 46.1935 179.091ZM54.0131 180.416C53.3114 180.416 52.7092 180.239 52.2063 179.884C51.7063 179.526 51.3214 179.01 51.0515 178.337C50.7844 177.661 50.6509 176.847 50.6509 175.895C50.6538 174.943 50.7887 174.134 51.0558 173.466C51.3256 172.795 51.7106 172.284 52.2106 171.932C52.7134 171.58 53.3143 171.403 54.0131 171.403C54.712 171.403 55.3129 171.58 55.8157 171.932C56.3185 172.284 56.7035 172.795 56.9705 173.466C57.2404 174.136 57.3754 174.946 57.3754 175.895C57.3754 176.849 57.2404 177.665 56.9705 178.341C56.7035 179.014 56.3185 179.528 55.8157 179.884C55.3157 180.239 54.7148 180.416 54.0131 180.416ZM54.0131 179.082C54.5586 179.082 54.989 178.814 55.3043 178.277C55.6225 177.737 55.7816 176.943 55.7816 175.895C55.7816 175.202 55.7092 174.619 55.5643 174.148C55.4194 173.676 55.2148 173.321 54.9506 173.082C54.6864 172.841 54.3739 172.72 54.0131 172.72C53.4705 172.72 53.0415 172.99 52.7262 173.53C52.4109 174.067 52.2518 174.855 52.2489 175.895C52.2461 176.591 52.3157 177.176 52.4577 177.651C52.6026 178.125 52.8072 178.483 53.0714 178.724C53.3356 178.963 53.6495 179.082 54.0131 179.082ZM58.8764 180.25V171.523H64.4673V172.848H60.4574V175.217H64.0838V176.543H60.4574V180.25H58.8764ZM65.9077 180.25V171.523H71.4986V172.848H67.4886V175.217H71.1151V176.543H67.4886V180.25H65.9077Z" fill="#A9B5BC"/>
<path d="M83.4787 178.648C83.1349 178.648 82.821 178.564 82.5369 178.396C82.2528 178.226 82.0256 177.999 81.8551 177.714C81.6875 177.43 81.6037 177.116 81.6037 176.773C81.6037 176.426 81.6875 176.112 81.8551 175.831C82.0256 175.547 82.2528 175.321 82.5369 175.153C82.821 174.983 83.1349 174.898 83.4787 174.898C83.8253 174.898 84.1392 174.983 84.4205 175.153C84.7045 175.321 84.9304 175.547 85.098 175.831C85.2685 176.112 85.3537 176.426 85.3537 176.773C85.3537 177.116 85.2685 177.43 85.098 177.714C84.9304 177.999 84.7045 178.226 84.4205 178.396C84.1392 178.564 83.8253 178.648 83.4787 178.648Z" fill="#A9B5BC"/>
<path d="M95.2926 180.25V173.705H96.7884V174.795H96.8565C96.9759 174.418 97.1804 174.126 97.4702 173.922C97.7628 173.714 98.0966 173.611 98.4716 173.611C98.5568 173.611 98.652 173.615 98.7571 173.624C98.8651 173.629 98.9545 173.639 99.0256 173.653V175.072C98.9602 175.05 98.8565 175.03 98.7145 175.013C98.5753 174.993 98.4403 174.983 98.3097 174.983C98.0284 174.983 97.7756 175.044 97.5511 175.166C97.3295 175.286 97.1548 175.452 97.027 175.665C96.8991 175.878 96.8352 176.124 96.8352 176.402V180.25H95.2926ZM102.627 182.841C102.074 182.841 101.598 182.766 101.2 182.615C100.802 182.467 100.483 182.268 100.241 182.018C99.9996 181.768 99.832 181.491 99.7383 181.188L101.127 180.851C101.19 180.979 101.281 181.105 101.4 181.23C101.52 181.358 101.68 181.463 101.882 181.545C102.086 181.631 102.343 181.673 102.653 181.673C103.091 181.673 103.453 181.567 103.74 181.354C104.027 181.143 104.17 180.797 104.17 180.314V179.074H104.093C104.014 179.233 103.897 179.396 103.744 179.564C103.593 179.732 103.393 179.872 103.143 179.986C102.896 180.099 102.585 180.156 102.21 180.156C101.707 180.156 101.251 180.038 100.842 179.803C100.436 179.564 100.112 179.209 99.8704 178.737C99.6317 178.263 99.5124 177.669 99.5124 176.956C99.5124 176.237 99.6317 175.631 99.8704 175.136C100.112 174.639 100.437 174.263 100.846 174.007C101.255 173.749 101.711 173.619 102.214 173.619C102.598 173.619 102.913 173.685 103.16 173.815C103.41 173.943 103.609 174.098 103.757 174.28C103.904 174.459 104.017 174.628 104.093 174.787H104.179V173.705H105.7V180.357C105.7 180.916 105.566 181.379 105.299 181.746C105.032 182.112 104.667 182.386 104.204 182.568C103.741 182.75 103.216 182.841 102.627 182.841ZM102.64 178.946C102.967 178.946 103.245 178.866 103.475 178.707C103.706 178.548 103.88 178.32 104 178.021C104.119 177.723 104.179 177.365 104.179 176.947C104.179 176.536 104.119 176.175 104 175.865C103.883 175.555 103.71 175.315 103.48 175.145C103.252 174.972 102.973 174.885 102.64 174.885C102.297 174.885 102.01 174.974 101.779 175.153C101.549 175.332 101.376 175.578 101.26 175.891C101.143 176.2 101.085 176.553 101.085 176.947C101.085 177.348 101.143 177.699 101.26 178C101.379 178.298 101.554 178.531 101.784 178.699C102.017 178.864 102.302 178.946 102.64 178.946ZM107.349 180.25V171.523H108.892V174.787H108.956C109.035 174.628 109.147 174.459 109.292 174.28C109.437 174.098 109.633 173.943 109.88 173.815C110.127 173.685 110.443 173.619 110.826 173.619C111.332 173.619 111.788 173.749 112.194 174.007C112.603 174.263 112.927 174.642 113.166 175.145C113.407 175.645 113.528 176.259 113.528 176.986C113.528 177.705 113.41 178.315 113.174 178.818C112.939 179.321 112.618 179.705 112.211 179.969C111.805 180.233 111.345 180.365 110.831 180.365C110.456 180.365 110.145 180.303 109.897 180.178C109.65 180.053 109.451 179.902 109.301 179.726C109.153 179.547 109.038 179.378 108.956 179.219H108.866V180.25H107.349ZM108.862 176.977C108.862 177.401 108.922 177.771 109.041 178.089C109.163 178.408 109.338 178.656 109.565 178.835C109.795 179.011 110.074 179.099 110.4 179.099C110.741 179.099 111.027 179.009 111.257 178.827C111.487 178.642 111.66 178.391 111.777 178.072C111.896 177.751 111.956 177.386 111.956 176.977C111.956 176.571 111.897 176.21 111.781 175.895C111.664 175.58 111.491 175.332 111.261 175.153C111.031 174.974 110.744 174.885 110.4 174.885C110.071 174.885 109.791 174.972 109.561 175.145C109.331 175.318 109.156 175.561 109.037 175.874C108.92 176.186 108.862 176.554 108.862 176.977ZM115.223 176.692C115.223 175.626 115.364 174.648 115.645 173.756C115.929 172.861 116.351 172.034 116.911 171.276H118.364C118.148 171.557 117.946 171.902 117.759 172.311C117.571 172.717 117.408 173.163 117.268 173.649C117.132 174.132 117.024 174.634 116.945 175.153C116.868 175.673 116.83 176.186 116.83 176.692C116.83 177.365 116.896 178.047 117.03 178.737C117.166 179.428 117.349 180.067 117.58 180.655C117.813 181.246 118.074 181.729 118.364 182.104H116.911C116.351 181.345 115.929 180.52 115.645 179.628C115.364 178.733 115.223 177.754 115.223 176.692ZM122.771 180.416C122.069 180.416 121.467 180.239 120.964 179.884C120.464 179.526 120.079 179.01 119.809 178.337C119.542 177.661 119.409 176.847 119.409 175.895C119.412 174.943 119.547 174.134 119.814 173.466C120.083 172.795 120.468 172.284 120.968 171.932C121.471 171.58 122.072 171.403 122.771 171.403C123.47 171.403 124.071 171.58 124.574 171.932C125.076 172.284 125.461 172.795 125.728 173.466C125.998 174.136 126.133 174.946 126.133 175.895C126.133 176.849 125.998 177.665 125.728 178.341C125.461 179.014 125.076 179.528 124.574 179.884C124.074 180.239 123.473 180.416 122.771 180.416ZM122.771 179.082C123.316 179.082 123.747 178.814 124.062 178.277C124.38 177.737 124.539 176.943 124.539 175.895C124.539 175.202 124.467 174.619 124.322 174.148C124.177 173.676 123.973 173.321 123.708 173.082C123.444 172.841 123.132 172.72 122.771 172.72C122.228 172.72 121.799 172.99 121.484 173.53C121.169 174.067 121.01 174.855 121.007 175.895C121.004 176.591 121.074 177.176 121.216 177.651C121.36 178.125 121.565 178.483 121.829 178.724C122.093 178.963 122.407 179.082 122.771 179.082ZM129.037 179.057L128.982 179.526C128.942 179.884 128.871 180.247 128.769 180.616C128.669 180.989 128.564 181.331 128.453 181.643C128.343 181.956 128.253 182.202 128.185 182.381H127.145C127.185 182.207 127.239 181.972 127.307 181.673C127.378 181.375 127.446 181.04 127.512 180.668C127.577 180.295 127.621 179.918 127.644 179.534L127.674 179.057H129.037ZM136.485 171.403C136.903 171.406 137.309 171.48 137.704 171.625C138.102 171.767 138.46 172 138.778 172.324C139.096 172.645 139.349 173.075 139.536 173.615C139.724 174.155 139.817 174.822 139.817 175.618C139.82 176.368 139.741 177.038 139.579 177.629C139.42 178.217 139.191 178.714 138.893 179.121C138.594 179.527 138.235 179.837 137.815 180.05C137.394 180.263 136.921 180.369 136.396 180.369C135.844 180.369 135.356 180.261 134.93 180.045C134.506 179.83 134.164 179.534 133.903 179.159C133.641 178.784 133.481 178.355 133.421 177.872H134.977C135.056 178.219 135.218 178.494 135.462 178.699C135.71 178.901 136.021 179.001 136.396 179.001C137.001 179.001 137.467 178.739 137.793 178.213C138.12 177.687 138.283 176.957 138.283 176.023H138.224C138.085 176.273 137.904 176.489 137.683 176.67C137.461 176.849 137.21 176.987 136.928 177.084C136.65 177.18 136.354 177.229 136.042 177.229C135.531 177.229 135.07 177.107 134.661 176.862C134.255 176.618 133.933 176.283 133.694 175.857C133.458 175.43 133.339 174.943 133.336 174.395C133.336 173.827 133.467 173.317 133.728 172.865C133.992 172.411 134.36 172.053 134.832 171.791C135.303 171.527 135.854 171.398 136.485 171.403ZM136.489 172.682C136.183 172.682 135.906 172.757 135.658 172.908C135.414 173.055 135.221 173.257 135.079 173.513C134.94 173.766 134.87 174.048 134.87 174.361C134.873 174.67 134.942 174.952 135.079 175.205C135.218 175.457 135.407 175.658 135.646 175.805C135.887 175.953 136.163 176.027 136.472 176.027C136.702 176.027 136.917 175.983 137.116 175.895C137.315 175.807 137.488 175.685 137.636 175.528C137.786 175.369 137.903 175.189 137.985 174.987C138.07 174.786 138.112 174.572 138.109 174.348C138.109 174.05 138.038 173.774 137.896 173.521C137.756 173.268 137.565 173.065 137.32 172.912C137.079 172.759 136.802 172.682 136.489 172.682ZM144.433 180.369C144.015 180.366 143.607 180.294 143.21 180.152C142.812 180.007 142.454 179.773 142.136 179.449C141.817 179.122 141.565 178.689 141.377 178.149C141.19 177.607 141.097 176.935 141.1 176.134C141.1 175.386 141.18 174.72 141.339 174.135C141.498 173.55 141.727 173.055 142.025 172.652C142.323 172.246 142.683 171.936 143.103 171.723C143.526 171.51 143.999 171.403 144.522 171.403C145.07 171.403 145.556 171.511 145.979 171.727C146.406 171.943 146.749 172.239 147.011 172.614C147.272 172.986 147.434 173.406 147.496 173.875H145.941C145.862 173.54 145.698 173.273 145.451 173.074C145.207 172.872 144.897 172.771 144.522 172.771C143.917 172.771 143.451 173.034 143.124 173.56C142.8 174.085 142.637 174.807 142.634 175.724H142.694C142.833 175.474 143.013 175.26 143.235 175.081C143.457 174.902 143.707 174.764 143.985 174.668C144.266 174.568 144.563 174.518 144.876 174.518C145.387 174.518 145.846 174.641 146.252 174.885C146.661 175.129 146.985 175.466 147.224 175.895C147.462 176.321 147.58 176.81 147.577 177.361C147.58 177.935 147.45 178.45 147.185 178.908C146.921 179.362 146.553 179.72 146.082 179.982C145.61 180.243 145.06 180.372 144.433 180.369ZM144.424 179.091C144.734 179.091 145.011 179.016 145.255 178.865C145.499 178.714 145.692 178.511 145.835 178.256C145.977 178 146.046 177.713 146.043 177.395C146.046 177.082 145.978 176.8 145.839 176.547C145.702 176.294 145.513 176.094 145.272 175.946C145.031 175.798 144.755 175.724 144.445 175.724C144.215 175.724 144.001 175.768 143.802 175.857C143.603 175.945 143.43 176.067 143.282 176.223C143.134 176.376 143.018 176.555 142.933 176.76C142.85 176.962 142.808 177.178 142.805 177.408C142.808 177.712 142.879 177.991 143.018 178.247C143.157 178.503 143.349 178.707 143.593 178.861C143.837 179.014 144.114 179.091 144.424 179.091ZM150.471 179.057L150.415 179.526C150.376 179.884 150.305 180.247 150.202 180.616C150.103 180.989 149.998 181.331 149.887 181.643C149.776 181.956 149.687 182.202 149.619 182.381H148.579C148.619 182.207 148.673 181.972 148.741 181.673C148.812 181.375 148.88 181.04 148.945 180.668C149.011 180.295 149.055 179.918 149.077 179.534L149.107 179.057H150.471ZM154.889 180.25V179.108L157.919 176.138C158.208 175.845 158.45 175.585 158.643 175.358C158.836 175.131 158.981 174.911 159.078 174.697C159.174 174.484 159.223 174.257 159.223 174.016C159.223 173.74 159.16 173.504 159.035 173.308C158.91 173.109 158.738 172.956 158.52 172.848C158.301 172.74 158.052 172.686 157.774 172.686C157.487 172.686 157.235 172.746 157.02 172.865C156.804 172.982 156.636 173.148 156.517 173.364C156.4 173.58 156.342 173.837 156.342 174.135H154.838C154.838 173.581 154.964 173.099 155.217 172.69C155.47 172.281 155.818 171.964 156.261 171.74C156.707 171.516 157.218 171.403 157.795 171.403C158.38 171.403 158.895 171.513 159.338 171.732C159.781 171.95 160.125 172.25 160.369 172.631C160.616 173.011 160.74 173.446 160.74 173.935C160.74 174.261 160.677 174.582 160.552 174.898C160.427 175.213 160.207 175.562 159.892 175.946C159.579 176.33 159.14 176.794 158.575 177.339L157.071 178.869V178.929H160.872V180.25H154.889ZM165.376 180.369C164.808 180.369 164.299 180.263 163.85 180.05C163.402 179.834 163.045 179.538 162.781 179.163C162.52 178.788 162.38 178.359 162.363 177.876H163.897C163.926 178.234 164.081 178.527 164.362 178.754C164.643 178.979 164.981 179.091 165.376 179.091C165.686 179.091 165.961 179.02 166.203 178.878C166.444 178.736 166.635 178.538 166.774 178.286C166.913 178.033 166.981 177.744 166.978 177.42C166.981 177.091 166.912 176.798 166.77 176.543C166.627 176.287 166.433 176.087 166.186 175.942C165.939 175.794 165.654 175.72 165.333 175.72C165.072 175.717 164.815 175.766 164.562 175.865C164.309 175.964 164.109 176.095 163.961 176.257L162.534 176.023L162.99 171.523H168.052V172.844H164.298L164.047 175.158H164.098C164.26 174.967 164.488 174.81 164.784 174.685C165.079 174.557 165.403 174.493 165.755 174.493C166.284 174.493 166.755 174.618 167.17 174.868C167.585 175.115 167.912 175.456 168.15 175.891C168.389 176.325 168.508 176.822 168.508 177.382C168.508 177.959 168.375 178.473 168.108 178.925C167.843 179.374 167.475 179.727 167.004 179.986C166.535 180.241 165.993 180.369 165.376 180.369ZM172.97 180.369C172.402 180.369 171.893 180.263 171.444 180.05C170.995 179.834 170.639 179.538 170.375 179.163C170.113 178.788 169.974 178.359 169.957 177.876H171.491C171.52 178.234 171.674 178.527 171.956 178.754C172.237 178.979 172.575 179.091 172.97 179.091C173.279 179.091 173.555 179.02 173.797 178.878C174.038 178.736 174.228 178.538 174.368 178.286C174.507 178.033 174.575 177.744 174.572 177.42C174.575 177.091 174.505 176.798 174.363 176.543C174.221 176.287 174.027 176.087 173.779 175.942C173.532 175.794 173.248 175.72 172.927 175.72C172.666 175.717 172.409 175.766 172.156 175.865C171.903 175.964 171.703 176.095 171.555 176.257L170.127 176.023L170.583 171.523H175.646V172.844H171.892L171.64 175.158H171.691C171.853 174.967 172.082 174.81 172.377 174.685C172.673 174.557 172.997 174.493 173.349 174.493C173.877 174.493 174.349 174.618 174.764 174.868C175.179 175.115 175.505 175.456 175.744 175.891C175.983 176.325 176.102 176.822 176.102 177.382C176.102 177.959 175.968 178.473 175.701 178.925C175.437 179.374 175.069 179.727 174.598 179.986C174.129 180.241 173.586 180.369 172.97 180.369ZM180.299 175.886C180.299 176.949 180.157 177.928 179.873 178.822C179.592 179.714 179.172 180.54 178.612 181.298H177.159C177.377 181.017 177.579 180.673 177.764 180.267C177.951 179.861 178.113 179.415 178.25 178.929C178.389 178.443 178.497 177.94 178.574 177.42C178.653 176.901 178.693 176.389 178.693 175.886C178.693 175.213 178.625 174.531 178.488 173.841C178.355 173.151 178.172 172.51 177.939 171.919C177.708 171.328 177.449 170.845 177.159 170.47H178.612C179.172 171.229 179.592 172.055 179.873 172.95C180.157 173.842 180.299 174.821 180.299 175.886Z" fill="#A9B5BC"/>
<defs>
<filter id="filter0_d_1594_9962" x="0" y="0" width="212" height="244" filterUnits="userSpaceOnUse" color-interpolation-filters="sRGB">
<feFlood flood-opacity="0" result="BackgroundImageFix"/>
<feColorMatrix in="SourceAlpha" type="matrix" values="0 0 0 0 0 0 0 0 0 0 0 0 0 0 0 0 0 0 127 0" result="hardAlpha"/>
<feMorphology radius="24" operator="erode" in="SourceAlpha" result="effect1_dropShadow_1594_9962"/>
<feOffset dy="40"/>
<feGaussianBlur stdDeviation="16"/>
<feColorMatrix type="matrix" values="0 0 0 0 0.0583333 0 0 0 0 0.0583333 0 0 0 0 0.0583333 0 0 0 0.12 0"/>
<feBlend mode="multiply" in2="BackgroundImageFix" result="effect1_dropShadow_1594_9962"/>
<feBlend mode="normal" in="SourceGraphic" in2="effect1_dropShadow_1594_9962" result="shape"/>
</filter>
</defs>
</svg>
