<svg width="120" height="120" viewBox="0 0 120 120" fill="none" xmlns="http://www.w3.org/2000/svg">
<rect x="1" y="33" width="55" height="55" rx="12" fill="#F0F6FF" stroke="#0060FF" stroke-width="1.5"/>
<path d="M20.5 10C20.5 8.89543 21.3954 8 22.5 8H34.5C35.6046 8 36.5 8.89543 36.5 10V16C36.5 17.1046 35.6046 18 34.5 18H22.5C21.3954 18 20.5 17.1046 20.5 16V10Z" fill="#0060FF"/>
<path d="M26.3835 10.1818V16H25.3295V11.2074H25.2955L23.9347 12.0767V11.1108L25.3807 10.1818H26.3835ZM29.9915 16.0795C29.7131 16.0777 29.4413 16.0294 29.1761 15.9347C28.911 15.8381 28.6723 15.6818 28.4602 15.4659C28.2481 15.2481 28.0795 14.9593 27.9545 14.5994C27.8295 14.2377 27.768 13.7898 27.7699 13.2557C27.7699 12.7576 27.8229 12.3134 27.929 11.9233C28.035 11.5331 28.1875 11.2036 28.3864 10.9347C28.5852 10.6638 28.8248 10.4574 29.1051 10.3153C29.3873 10.1733 29.7027 10.1023 30.0511 10.1023C30.4167 10.1023 30.7405 10.1742 31.0227 10.3182C31.3068 10.4621 31.536 10.6591 31.7102 10.9091C31.8845 11.1572 31.9924 11.4375 32.0341 11.75H30.9972C30.9441 11.5265 30.8352 11.3485 30.6705 11.2159C30.5076 11.0814 30.3011 11.0142 30.0511 11.0142C29.6477 11.0142 29.3371 11.1894 29.1193 11.5398C28.9034 11.8902 28.7945 12.3712 28.7926 12.983H28.8324C28.9252 12.8163 29.0455 12.6733 29.1932 12.554C29.3409 12.4347 29.5076 12.3428 29.6932 12.2784C29.8807 12.2121 30.0786 12.179 30.2869 12.179C30.6278 12.179 30.9337 12.2604 31.2045 12.4233C31.4773 12.5862 31.6932 12.8106 31.8523 13.0966C32.0114 13.3807 32.09 13.7064 32.0881 14.0739C32.09 14.4564 32.0028 14.8002 31.8267 15.1051C31.6506 15.4081 31.4053 15.6468 31.0909 15.821C30.7765 15.9953 30.41 16.0814 29.9915 16.0795ZM29.9858 15.2273C30.1922 15.2273 30.3769 15.1771 30.5398 15.0767C30.7027 14.9763 30.8314 14.8409 30.9261 14.6705C31.0208 14.5 31.0672 14.3087 31.0653 14.0966C31.0672 13.8883 31.0218 13.6998 30.929 13.5312C30.8381 13.3627 30.7121 13.2292 30.5511 13.1307C30.3902 13.0322 30.2064 12.983 30 12.983C29.8466 12.983 29.7036 13.0123 29.571 13.071C29.4384 13.1297 29.3229 13.2112 29.2244 13.3153C29.1259 13.4176 29.0483 13.5369 28.9915 13.6733C28.9366 13.8078 28.9081 13.9517 28.9062 14.1051C28.9081 14.3078 28.9555 14.4943 29.0483 14.6648C29.1411 14.8352 29.2689 14.9716 29.4318 15.0739C29.5947 15.1761 29.7794 15.2273 29.9858 15.2273Z" fill="white"/>
<path d="M1 24L3.5 25.4434L3.5 22.5566L1 24ZM56 24L53.5 22.5566L53.5 25.4434L56 24ZM3.25 24.25L53.75 24.25L53.75 23.75L3.25 23.75L3.25 24.25Z" fill="#0060FF"/>
<path d="M72 56C72 54.8954 72.8954 54 74 54H86C87.1046 54 88 54.8954 88 56V62C88 63.1046 87.1046 64 86 64H74C72.8954 64 72 63.1046 72 62V56Z" fill="#0060FF"/>
<path d="M77.8835 56.1818V62H76.8295V57.2074H76.7955L75.4347 58.0767V57.1108L76.8807 56.1818H77.8835ZM81.4915 62.0795C81.2131 62.0777 80.9413 62.0294 80.6761 61.9347C80.411 61.8381 80.1723 61.6818 79.9602 61.4659C79.7481 61.2481 79.5795 60.9593 79.4545 60.5994C79.3295 60.2377 79.268 59.7898 79.2699 59.2557C79.2699 58.7576 79.3229 58.3134 79.429 57.9233C79.535 57.5331 79.6875 57.2036 79.8864 56.9347C80.0852 56.6638 80.3248 56.4574 80.6051 56.3153C80.8873 56.1733 81.2027 56.1023 81.5511 56.1023C81.9167 56.1023 82.2405 56.1742 82.5227 56.3182C82.8068 56.4621 83.036 56.6591 83.2102 56.9091C83.3845 57.1572 83.4924 57.4375 83.5341 57.75H82.4972C82.4441 57.5265 82.3352 57.3485 82.1705 57.2159C82.0076 57.0814 81.8011 57.0142 81.5511 57.0142C81.1477 57.0142 80.8371 57.1894 80.6193 57.5398C80.4034 57.8902 80.2945 58.3712 80.2926 58.983H80.3324C80.4252 58.8163 80.5455 58.6733 80.6932 58.554C80.8409 58.4347 81.0076 58.3428 81.1932 58.2784C81.3807 58.2121 81.5786 58.179 81.7869 58.179C82.1278 58.179 82.4337 58.2604 82.7045 58.4233C82.9773 58.5862 83.1932 58.8106 83.3523 59.0966C83.5114 59.3807 83.59 59.7064 83.5881 60.0739C83.59 60.4564 83.5028 60.8002 83.3267 61.1051C83.1506 61.4081 82.9053 61.6468 82.5909 61.821C82.2765 61.9953 81.91 62.0814 81.4915 62.0795ZM81.4858 61.2273C81.6922 61.2273 81.8769 61.1771 82.0398 61.0767C82.2027 60.9763 82.3314 60.8409 82.4261 60.6705C82.5208 60.5 82.5672 60.3087 82.5653 60.0966C82.5672 59.8883 82.5218 59.6998 82.429 59.5312C82.3381 59.3627 82.2121 59.2292 82.0511 59.1307C81.8902 59.0322 81.7064 58.983 81.5 58.983C81.3466 58.983 81.2036 59.0123 81.071 59.071C80.9384 59.1297 80.8229 59.2112 80.7244 59.3153C80.6259 59.4176 80.5483 59.5369 80.4915 59.6733C80.4366 59.8078 80.4081 59.9517 80.4062 60.1051C80.4081 60.3078 80.4555 60.4943 80.5483 60.6648C80.6411 60.8352 80.7689 60.9716 80.9318 61.0739C81.0947 61.1761 81.2794 61.2273 81.4858 61.2273Z" fill="white"/>
<path d="M66 31.5L64.5566 34L67.4434 34L66 31.5ZM66 86.5L67.4434 84L64.5566 84L66 86.5ZM65.75 33.75L65.75 84.25L66.25 84.25L66.25 33.75L65.75 33.75Z" fill="#0060FF"/>
</svg>
