<svg width="163" height="30" viewBox="0 0 163 30" fill="none" xmlns="http://www.w3.org/2000/svg">
<path d="M51.66 10.64H46.06V13.96H51.5V16.6H46.06V22H43.3V8H51.66V10.64Z" fill="black"/>
<path d="M56.3311 13.72C56.5711 13.08 56.9645 12.6 57.5111 12.28C58.0711 11.96 58.6911 11.8 59.3711 11.8V14.68C58.5845 14.5867 57.8778 14.7467 57.2511 15.16C56.6378 15.5733 56.3311 16.26 56.3311 17.22V22H53.7511V12H56.3311V13.72Z" fill="black"/>
<path d="M68.309 12H70.889V22H68.309V20.82C67.5356 21.7933 66.449 22.28 65.049 22.28C63.7156 22.28 62.569 21.7733 61.609 20.76C60.6623 19.7333 60.189 18.48 60.189 17C60.189 15.52 60.6623 14.2733 61.609 13.26C62.569 12.2333 63.7156 11.72 65.049 11.72C66.449 11.72 67.5356 12.2067 68.309 13.18V12ZM63.549 19.04C64.069 19.56 64.729 19.82 65.529 19.82C66.329 19.82 66.989 19.56 67.509 19.04C68.0423 18.5067 68.309 17.8267 68.309 17C68.309 16.1733 68.0423 15.5 67.509 14.98C66.989 14.4467 66.329 14.18 65.529 14.18C64.729 14.18 64.069 14.4467 63.549 14.98C63.029 15.5 62.769 16.1733 62.769 17C62.769 17.8267 63.029 18.5067 63.549 19.04Z" fill="black"/>
<path d="M84.4885 11.72C85.6352 11.72 86.5485 12.0933 87.2285 12.84C87.9218 13.5867 88.2685 14.5867 88.2685 15.84V22H85.6885V16.02C85.6885 15.42 85.5418 14.9533 85.2485 14.62C84.9552 14.2867 84.5418 14.12 84.0085 14.12C83.4218 14.12 82.9618 14.3133 82.6285 14.7C82.3085 15.0867 82.1485 15.6467 82.1485 16.38V22H79.5685V16.02C79.5685 15.42 79.4218 14.9533 79.1285 14.62C78.8352 14.2867 78.4218 14.12 77.8885 14.12C77.3152 14.12 76.8552 14.3133 76.5085 14.7C76.1752 15.0867 76.0085 15.6467 76.0085 16.38V22H73.4285V12H76.0085V13.06C76.6085 12.1667 77.5352 11.72 78.7885 11.72C80.0152 11.72 80.9218 12.2 81.5085 13.16C82.1752 12.2 83.1685 11.72 84.4885 11.72Z" fill="black"/>
<path d="M92.8397 18.06C93.1864 19.3133 94.1264 19.94 95.6597 19.94C96.6464 19.94 97.3931 19.6067 97.8997 18.94L99.9797 20.14C98.9931 21.5667 97.5397 22.28 95.6197 22.28C93.9664 22.28 92.6397 21.78 91.6397 20.78C90.6397 19.78 90.1397 18.52 90.1397 17C90.1397 15.4933 90.6331 14.24 91.6197 13.24C92.6064 12.2267 93.8731 11.72 95.4197 11.72C96.8864 11.72 98.0931 12.2267 99.0397 13.24C99.9997 14.2533 100.48 15.5067 100.48 17C100.48 17.3333 100.446 17.6867 100.38 18.06H92.8397ZM92.7997 16.06H97.8997C97.7531 15.38 97.4464 14.8733 96.9797 14.54C96.5264 14.2067 96.0064 14.04 95.4197 14.04C94.7264 14.04 94.1531 14.22 93.6997 14.58C93.2464 14.9267 92.9464 15.42 92.7997 16.06Z" fill="black"/>
<path d="M104.47 14.84C104.47 15.1067 104.644 15.3267 104.99 15.5C105.35 15.66 105.784 15.8067 106.29 15.94C106.797 16.06 107.304 16.22 107.81 16.42C108.317 16.6067 108.744 16.9267 109.09 17.38C109.45 17.8333 109.63 18.4 109.63 19.08C109.63 20.1067 109.244 20.9 108.47 21.46C107.71 22.0067 106.757 22.28 105.61 22.28C103.557 22.28 102.157 21.4867 101.41 19.9L103.65 18.64C103.944 19.5067 104.597 19.94 105.61 19.94C106.53 19.94 106.99 19.6533 106.99 19.08C106.99 18.8133 106.81 18.6 106.45 18.44C106.104 18.2667 105.677 18.1133 105.17 17.98C104.664 17.8467 104.157 17.68 103.65 17.48C103.144 17.28 102.71 16.9667 102.35 16.54C102.004 16.1 101.83 15.5533 101.83 14.9C101.83 13.9133 102.19 13.14 102.91 12.58C103.644 12.0067 104.55 11.72 105.63 11.72C106.444 11.72 107.184 11.9067 107.85 12.28C108.517 12.64 109.044 13.16 109.43 13.84L107.23 15.04C106.91 14.36 106.377 14.02 105.63 14.02C105.297 14.02 105.017 14.0933 104.79 14.24C104.577 14.3867 104.47 14.5867 104.47 14.84Z" fill="black"/>
<rect width="30" height="30" rx="8" fill="url(#paint0_linear_1807_9896)"/>
<path d="M22 7V11.4255H15.8776L20.4082 16.6454H14.898V23H10V16.6454H14.898L10 11.4255V7H22Z" fill="url(#paint1_linear_1807_9896)"/>
<path d="M123 16C123 8.26801 129.268 2 137 2H149C156.732 2 163 8.26801 163 16V16C163 23.732 156.732 30 149 30H137C129.268 30 123 23.732 123 16V16Z" fill="#F0F6FF"/>
<path d="M137.639 13.4545L135.308 20H133.604L131.273 13.4545H132.918L134.422 18.3168H134.49L135.999 13.4545H137.639ZM142.239 11.2727V20H140.658V12.8111H140.607L138.566 14.1151V12.6662L140.735 11.2727H142.239ZM144.942 20.0938C144.684 20.0938 144.462 20.0028 144.277 19.821C144.093 19.6392 144.002 19.4176 144.005 19.1562C144.002 18.9006 144.093 18.6818 144.277 18.5C144.462 18.3182 144.684 18.2273 144.942 18.2273C145.192 18.2273 145.409 18.3182 145.594 18.5C145.782 18.6818 145.877 18.9006 145.88 19.1562C145.877 19.3295 145.831 19.4872 145.743 19.6293C145.658 19.7713 145.544 19.8849 145.402 19.9702C145.263 20.0526 145.11 20.0938 144.942 20.0938ZM150.341 20.1662C149.64 20.1662 149.037 19.9886 148.534 19.6335C148.034 19.2756 147.65 18.7599 147.38 18.0866C147.113 17.4105 146.979 16.5966 146.979 15.6449C146.982 14.6932 147.117 13.8835 147.384 13.2159C147.654 12.5455 148.039 12.0341 148.539 11.6818C149.042 11.3295 149.642 11.1534 150.341 11.1534C151.04 11.1534 151.641 11.3295 152.144 11.6818C152.647 12.0341 153.032 12.5455 153.299 13.2159C153.569 13.8864 153.703 14.696 153.703 15.6449C153.703 16.5994 153.569 17.4148 153.299 18.0909C153.032 18.7642 152.647 19.2784 152.144 19.6335C151.644 19.9886 151.043 20.1662 150.341 20.1662ZM150.341 18.8324C150.887 18.8324 151.317 18.5639 151.632 18.027C151.951 17.4872 152.11 16.6932 152.11 15.6449C152.11 14.9517 152.037 14.3693 151.892 13.8977C151.748 13.4261 151.543 13.071 151.279 12.8324C151.015 12.5909 150.702 12.4702 150.341 12.4702C149.799 12.4702 149.37 12.7401 149.054 13.2798C148.739 13.8168 148.58 14.6051 148.577 15.6449C148.574 16.3409 148.644 16.9261 148.786 17.4006C148.931 17.875 149.135 18.233 149.4 18.4744C149.664 18.7131 149.978 18.8324 150.341 18.8324Z" fill="#0060FF"/>
<defs>
<linearGradient id="paint0_linear_1807_9896" x1="0" y1="0" x2="0" y2="30" gradientUnits="userSpaceOnUse">
<stop stop-color="#66A0FF"/>
<stop offset="1" stop-color="#0060FF"/>
</linearGradient>
<linearGradient id="paint1_linear_1807_9896" x1="10" y1="7" x2="10" y2="23" gradientUnits="userSpaceOnUse">
<stop stop-color="white"/>
<stop offset="1" stop-color="#CAE5FF"/>
</linearGradient>
</defs>
</svg>
