<svg width="163" height="30" viewBox="0 0 163 30" fill="none" xmlns="http://www.w3.org/2000/svg">
<path d="M51.66 10.64H46.06V13.96H51.5V16.6H46.06V22H43.3V8H51.66V10.64Z" fill="black"/>
<path d="M56.3311 13.72C56.5711 13.08 56.9644 12.6 57.5111 12.28C58.0711 11.96 58.6911 11.8 59.3711 11.8V14.68C58.5844 14.5867 57.8777 14.7467 57.2511 15.16C56.6377 15.5733 56.3311 16.26 56.3311 17.22V22H53.7511V12H56.3311V13.72Z" fill="black"/>
<path d="M68.3089 12H70.8889V22H68.3089V20.82C67.5356 21.7933 66.4489 22.28 65.0489 22.28C63.7156 22.28 62.5689 21.7733 61.6089 20.76C60.6622 19.7333 60.1889 18.48 60.1889 17C60.1889 15.52 60.6622 14.2733 61.6089 13.26C62.5689 12.2333 63.7156 11.72 65.0489 11.72C66.4489 11.72 67.5356 12.2067 68.3089 13.18V12ZM63.5489 19.04C64.0689 19.56 64.7289 19.82 65.5289 19.82C66.3289 19.82 66.9889 19.56 67.5089 19.04C68.0422 18.5067 68.3089 17.8267 68.3089 17C68.3089 16.1733 68.0422 15.5 67.5089 14.98C66.9889 14.4467 66.3289 14.18 65.5289 14.18C64.7289 14.18 64.0689 14.4467 63.5489 14.98C63.0289 15.5 62.7689 16.1733 62.7689 17C62.7689 17.8267 63.0289 18.5067 63.5489 19.04Z" fill="black"/>
<path d="M84.4884 11.72C85.6351 11.72 86.5484 12.0933 87.2284 12.84C87.9218 13.5867 88.2684 14.5867 88.2684 15.84V22H85.6884V16.02C85.6884 15.42 85.5418 14.9533 85.2484 14.62C84.9551 14.2867 84.5418 14.12 84.0084 14.12C83.4218 14.12 82.9618 14.3133 82.6284 14.7C82.3084 15.0867 82.1484 15.6467 82.1484 16.38V22H79.5684V16.02C79.5684 15.42 79.4218 14.9533 79.1284 14.62C78.8351 14.2867 78.4218 14.12 77.8884 14.12C77.3151 14.12 76.8551 14.3133 76.5084 14.7C76.1751 15.0867 76.0084 15.6467 76.0084 16.38V22H73.4284V12H76.0084V13.06C76.6084 12.1667 77.5351 11.72 78.7884 11.72C80.0151 11.72 80.9218 12.2 81.5084 13.16C82.1751 12.2 83.1684 11.72 84.4884 11.72Z" fill="black"/>
<path d="M92.8397 18.06C93.1863 19.3133 94.1263 19.94 95.6597 19.94C96.6463 19.94 97.393 19.6067 97.8997 18.94L99.9797 20.14C98.993 21.5667 97.5397 22.28 95.6197 22.28C93.9663 22.28 92.6397 21.78 91.6397 20.78C90.6397 19.78 90.1397 18.52 90.1397 17C90.1397 15.4933 90.633 14.24 91.6197 13.24C92.6063 12.2267 93.873 11.72 95.4197 11.72C96.8863 11.72 98.093 12.2267 99.0397 13.24C99.9997 14.2533 100.48 15.5067 100.48 17C100.48 17.3333 100.446 17.6867 100.38 18.06H92.8397ZM92.7997 16.06H97.8997C97.753 15.38 97.4463 14.8733 96.9797 14.54C96.5263 14.2067 96.0063 14.04 95.4197 14.04C94.7263 14.04 94.153 14.22 93.6997 14.58C93.2463 14.9267 92.9463 15.42 92.7997 16.06Z" fill="black"/>
<path d="M104.47 14.84C104.47 15.1067 104.643 15.3267 104.99 15.5C105.35 15.66 105.783 15.8067 106.29 15.94C106.797 16.06 107.303 16.22 107.81 16.42C108.317 16.6067 108.743 16.9267 109.09 17.38C109.45 17.8333 109.63 18.4 109.63 19.08C109.63 20.1067 109.243 20.9 108.47 21.46C107.71 22.0067 106.757 22.28 105.61 22.28C103.557 22.28 102.157 21.4867 101.41 19.9L103.65 18.64C103.943 19.5067 104.597 19.94 105.61 19.94C106.53 19.94 106.99 19.6533 106.99 19.08C106.99 18.8133 106.81 18.6 106.45 18.44C106.103 18.2667 105.677 18.1133 105.17 17.98C104.663 17.8467 104.157 17.68 103.65 17.48C103.143 17.28 102.71 16.9667 102.35 16.54C102.003 16.1 101.83 15.5533 101.83 14.9C101.83 13.9133 102.19 13.14 102.91 12.58C103.643 12.0067 104.55 11.72 105.63 11.72C106.443 11.72 107.183 11.9067 107.85 12.28C108.517 12.64 109.043 13.16 109.43 13.84L107.23 15.04C106.91 14.36 106.377 14.02 105.63 14.02C105.297 14.02 105.017 14.0933 104.79 14.24C104.577 14.3867 104.47 14.5867 104.47 14.84Z" fill="black"/>
<rect width="30" height="30" rx="8" fill="url(#paint0_linear_1730_9895)"/>
<path d="M22 7V11.4255H15.8776L20.4082 16.6454H14.898V23H10V16.6454H14.898L10 11.4255V7H22Z" fill="url(#paint1_linear_1730_9895)"/>
<rect x="123" y="2" width="40" height="28" rx="14" fill="white"/>
<path d="M137.639 13.4545L135.308 20H133.604L131.273 13.4545H132.918L134.422 18.3168H134.49L135.999 13.4545H137.639ZM142.239 11.2727V20H140.658V12.8111H140.607L138.566 14.1151V12.6662L140.735 11.2727H142.239ZM144.942 20.0938C144.684 20.0938 144.462 20.0028 144.277 19.821C144.093 19.6392 144.002 19.4176 144.005 19.1562C144.002 18.9006 144.093 18.6818 144.277 18.5C144.462 18.3182 144.684 18.2273 144.942 18.2273C145.192 18.2273 145.409 18.3182 145.594 18.5C145.782 18.6818 145.877 18.9006 145.88 19.1562C145.877 19.3295 145.831 19.4872 145.743 19.6293C145.658 19.7713 145.544 19.8849 145.402 19.9702C145.263 20.0526 145.11 20.0938 144.942 20.0938ZM150.341 20.1662C149.64 20.1662 149.037 19.9886 148.534 19.6335C148.034 19.2756 147.65 18.7599 147.38 18.0866C147.113 17.4105 146.979 16.5966 146.979 15.6449C146.982 14.6932 147.117 13.8835 147.384 13.2159C147.654 12.5455 148.039 12.0341 148.539 11.6818C149.042 11.3295 149.642 11.1534 150.341 11.1534C151.04 11.1534 151.641 11.3295 152.144 11.6818C152.647 12.0341 153.032 12.5455 153.299 13.2159C153.569 13.8864 153.703 14.696 153.703 15.6449C153.703 16.5994 153.569 17.4148 153.299 18.0909C153.032 18.7642 152.647 19.2784 152.144 19.6335C151.644 19.9886 151.043 20.1662 150.341 20.1662ZM150.341 18.8324C150.887 18.8324 151.317 18.5639 151.632 18.027C151.951 17.4872 152.11 16.6932 152.11 15.6449C152.11 14.9517 152.037 14.3693 151.892 13.8977C151.748 13.4261 151.543 13.071 151.279 12.8324C151.015 12.5909 150.702 12.4702 150.341 12.4702C149.799 12.4702 149.37 12.7401 149.054 13.2798C148.739 13.8168 148.58 14.6051 148.577 15.6449C148.574 16.3409 148.644 16.9261 148.786 17.4006C148.931 17.875 149.135 18.233 149.4 18.4744C149.664 18.7131 149.978 18.8324 150.341 18.8324Z" fill="#0060FF"/>
<defs>
<linearGradient id="paint0_linear_1730_9895" x1="0" y1="0" x2="0" y2="30" gradientUnits="userSpaceOnUse">
<stop stop-color="#66A0FF"/>
<stop offset="1" stop-color="#0060FF"/>
</linearGradient>
<linearGradient id="paint1_linear_1730_9895" x1="10" y1="7" x2="10" y2="23" gradientUnits="userSpaceOnUse">
<stop stop-color="white"/>
<stop offset="1" stop-color="#CAE5FF"/>
</linearGradient>
</defs>
</svg>
